<?xml version="1.0" encoding="utf-8"?>
<svg width="800px" height="800px" viewBox="0 0 32 32" xmlns="http://www.w3.org/2000/svg">
    <title>cross-round</title>
    
    <!-- Основной круг с обводкой -->
    <circle 
        cx="16" 
        cy="16" 
        r="14" 
        fill="%%BG_COLOR%%" 
        stroke="%%STROKE_COLOR%%" 
        stroke-width="3"
    />
    
    <!-- Крест -->
    <path 
        fill="%%STROKE_COLOR%%"
        d="M9.76 20.256q0 0.832 0.576 1.408t1.44 0.608 1.408-0.608l2.816-2.816 2.816 2.816q0.576 0.608 1.408 0.608t1.44-0.608 0.576-1.408-0.576-1.408l-2.848-2.848 2.848-2.816q0.576-0.576 0.576-1.408t-0.576-1.408-1.44-0.608-1.408 0.608l-2.816 2.816-2.816-2.816q-0.576-0.608-1.408-0.608t-1.44 0.608-0.576 1.408 0.576 1.408l2.848 2.816-2.848 2.848q-0.576 0.576-0.576 1.408z"
    />
</svg>